<svg xmlns="http://www.w3.org/2000/svg" xmlns:xlink="http://www.w3.org/1999/xlink" width="2498" height="1755" viewBox="0 0 2498 1755"><defs><clipPath id="a"><rect width="2498" height="1755" fill="none"/></clipPath><pattern id="b" preserveAspectRatio="none" width="100%" height="100%" viewBox="0 0 1836 889"><image width="1836" height="889" xlink:href="Scroll%20Group%201-image6.png"/></pattern><pattern id="c" preserveAspectRatio="none" width="100%" height="100%" viewBox="0 0 1734 785"><image width="1734" height="785" xlink:href="Scroll%20Group%201-image9.png"/></pattern><pattern id="d" preserveAspectRatio="none" width="100%" height="100%" viewBox="0 0 374 400"><image width="374" height="400" xlink:href="Scroll%20Group%201-image10.png"/></pattern><pattern id="e" preserveAspectRatio="none" width="100%" height="100%" viewBox="0 0 3345 1279"><image width="3345" height="1279" xlink:href="Scroll%20Group%201-image11.png"/></pattern></defs><g clip-path="url(#a)" style="isolation:isolate"><image width="2632" height="1977" xlink:href="Scroll%20Group%201-image.png"/><g transform="translate(261 1057)"><image width="2088" height="816" xlink:href="Scroll%20Group%201-image2.png"/></g><g transform="translate(37 436)"><image width="2360" height="1000" xlink:href="Scroll%20Group%201-image3.png"/></g><g transform="translate(614 193)"><image width="1288" height="1336" xlink:href="Scroll%20Group%201-image4.png"/></g><g transform="translate(175 989)"><image width="612" height="739" transform="translate(0 0)" xlink:href="Scroll%20Group%201-image5.png"/></g><g transform="translate(867.248 666.887)"><rect width="445" height="216" transform="matrix(0.996, -0.087, 0.087, 0.996, 0, 38.784)" fill="url(#b)"/></g><g transform="translate(950.579 759.402)"><image width="331" height="558" transform="matrix(0.998, -0.07, 0.07, 0.998, 0, 23.089)" xlink:href="Scroll%20Group%201-image7.png"/></g><g transform="translate(689 1062)"><image width="1056" height="594" transform="translate(0 0)" xlink:href="Scroll%20Group%201-image8.png"/></g><g transform="translate(889.151 533.956)"><rect width="415" height="188" transform="translate(0 36.17) rotate(-5)" fill="url(#c)"/></g><g transform="translate(1549 821)"><rect width="848" height="908" fill="url(#d)"/></g><g transform="translate(1116.745 591.74)"><rect width="677" height="289" transform="matrix(0.998, -0.07, 0.07, 0.998, 0, 47.225)" fill="url(#e)"/></g><g transform="translate(1241.804 784.55)"><image width="330" height="598" transform="matrix(1, 0.017, -0.017, 1, 10.437, 0)" xlink:href="Scroll%20Group%201-image12.png"/></g></g></svg>